<?xml version="1.0" standalone="no"?>
<!DOCTYPE svg PUBLIC "-//W3C//DTD SVG 20010904//EN"
 "http://www.w3.org/TR/2001/REC-SVG-20010904/DTD/svg10.dtd">
<svg version="1.0" xmlns="http://www.w3.org/2000/svg"
 width="1920.000000pt" height="1920.000000pt" viewBox="0 0 1920.000000 1920.000000"
 preserveAspectRatio="xMidYMid meet">
<metadata>
Created by potrace 1.14, written by Peter Selinger 2001-2017
</metadata>
<g transform="translate(0.000000,1920.000000) scale(0.100000,-0.100000)"
fill="#000000" stroke="none">
<path d="M5310 19119 c-1604 -98 -3092 -901 -4062 -2194 -650 -865 -1023
-1889 -1088 -2985 -13 -226 -13 -8398 0 -8615 75 -1212 505 -2292 1286 -3230
140 -168 493 -521 659 -659 702 -583 1480 -970 2335 -1161 189 -42 194 -43
186 -12 -145 505 -260 1160 -310 1772 -15 180 -18 224 -36 558 -8 137 -14 188
-28 220 -64 143 -229 179 -419 92 l-56 -25 5 297 c11 597 -21 884 -116 1047
-63 107 -204 195 -328 204 -85 6 -143 -10 -212 -58 l-54 -38 -6 46 c-9 70 -7
392 4 547 24 327 70 715 146 1233 24 166 44 323 44 349 0 135 -138 246 -267
214 -25 -7 -48 -10 -51 -7 -8 9 18 125 50 221 76 230 282 591 519 912 118 159
143 230 115 325 -8 29 -29 70 -47 91 -30 37 -113 87 -144 87 -34 0 -37 -4 254
350 236 287 313 446 282 584 -18 81 -66 138 -159 192 -2 1 28 30 65 65 276
256 546 550 689 749 249 346 400 708 444 1061 26 216 125 388 315 550 47 41
90 75 94 77 4 1 11 -37 14 -85 23 -319 101 -760 173 -981 52 -158 154 -362
182 -362 6 0 262 208 296 240 5 5 -6 37 -26 77 -97 185 -174 519 -229 983 -18
150 -22 244 -23 495 l-1 310 38 177 c144 680 467 1487 778 1943 182 269 356
431 519 485 131 44 246 0 413 -160 249 -238 505 -649 822 -1320 277 -585 337
-700 409 -778 78 -84 124 -96 456 -112 500 -24 845 -85 1155 -205 722 -278
1155 -846 1301 -1703 13 -80 33 -270 44 -421 27 -366 37 -466 65 -656 53 -345
127 -564 262 -768 62 -95 233 -270 353 -361 81 -62 300 -211 417 -282 l33 -20
-47 -44 c-80 -78 -149 -201 -168 -302 -8 -42 -8 -42 -231 -59 -300 -22 -634
21 -860 111 -250 100 -421 219 -719 500 -295 278 -442 360 -648 360 -108 0
-119 -3 -348 -86 -207 -75 -505 -162 -675 -198 -349 -73 -655 -75 -874 -4
-144 46 -256 116 -463 291 -167 140 -257 202 -372 258 -144 70 -230 91 -405
96 -166 6 -142 11 -610 -134 -513 -159 -868 -301 -1057 -422 -267 -171 -318
-390 -133 -572 l60 -58 -96 -72 c-271 -205 -383 -361 -371 -520 6 -89 36 -150
114 -227 l64 -63 -30 -54 c-44 -78 -107 -230 -126 -305 -24 -93 -22 -211 5
-282 43 -115 154 -202 290 -228 96 -18 295 -8 511 26 l36 5 31 -65 c62 -132
161 -250 248 -294 146 -74 290 -41 479 109 132 105 122 103 203 31 105 -93
217 -169 327 -222 126 -61 193 -79 322 -87 171 -10 286 16 568 129 200 80 328
123 438 147 158 34 212 35 487 7 607 -61 1188 -96 1605 -96 121 0 225 -4 231
-8 6 -4 21 -27 34 -51 40 -80 161 -273 241 -386 354 -498 765 -849 1324 -1127
267 -134 514 -232 1045 -418 774 -271 1095 -425 1455 -699 125 -95 378 -345
478 -472 347 -441 598 -1002 787 -1759 27 -107 59 -244 71 -305 12 -60 26
-114 30 -119 18 -21 454 250 699 435 303 228 679 583 904 854 714 858 1137
1841 1260 2930 37 318 37 432 34 4735 -4 4657 1 4285 -64 4710 -209 1365 -922
2594 -2014 3465 -759 606 -1660 995 -2640 1139 -362 53 -56 50 -4635 52 -2321
1 -4281 -2 -4355 -7z m7083 -4047 c95 -42 139 -168 139 -402 1 -497 -232
-1293 -687 -2350 -53 -124 -100 -229 -104 -233 -4 -4 -24 19 -44 52 -58 93
-173 238 -272 340 -358 373 -824 613 -1422 732 -87 17 -160 33 -162 35 -2 1
50 63 114 136 965 1093 1832 1736 2311 1714 52 -2 97 -11 127 -24z m-5224
-6087 c131 -31 212 -82 455 -285 169 -141 250 -196 391 -265 202 -99 383 -137
655 -137 378 -1 746 77 1329 281 96 34 188 61 205 61 77 -1 160 -58 386 -269
262 -245 417 -363 612 -466 285 -150 596 -228 962 -242 144 -5 444 9 502 23
18 5 28 -6 63 -71 98 -182 242 -313 398 -362 29 -9 53 -21 53 -26 0 -18 -71
-106 -125 -155 -482 -441 -1751 -609 -3590 -477 -236 17 -592 49 -766 69 -256
29 -506 -21 -914 -184 -249 -100 -303 -115 -410 -114 -69 0 -103 6 -147 23
-78 30 -185 103 -298 201 -238 208 -409 202 -692 -27 -56 -46 -71 -54 -79 -42
-22 32 -58 108 -79 166 -28 78 -77 136 -144 170 -44 23 -66 28 -161 31 -67 2
-155 -2 -225 -12 -170 -23 -280 -31 -280 -19 0 26 44 132 103 249 37 71 70
147 75 170 11 51 6 132 -14 186 -16 47 -87 143 -121 165 -13 9 -23 21 -23 28
0 24 305 264 400 315 46 25 114 96 136 145 60 128 1 263 -160 364 l-50 31 145
69 c222 106 559 225 1089 385 131 39 217 45 319 21z m6319 -799 c187 -95 227
-338 81 -485 -63 -62 -120 -85 -214 -85 -96 1 -138 17 -205 80 -123 115 -128
307 -12 427 92 96 235 121 350 63z"/>
</g>
</svg>
