<?xml version="1.0" standalone="no"?>
<!DOCTYPE svg PUBLIC "-//W3C//DTD SVG 20010904//EN"
 "http://www.w3.org/TR/2001/REC-SVG-20010904/DTD/svg10.dtd">
<svg version="1.0" xmlns="http://www.w3.org/2000/svg"
 width="1528.000000pt" height="1528.000000pt" viewBox="0 0 1528.000000 1528.000000"
 preserveAspectRatio="xMidYMid meet">
<metadata>
Created by potrace 1.14, written by Peter Selinger 2001-2017
</metadata>
<g transform="translate(0.000000,1528.000000) scale(0.100000,-0.100000)"
fill="#000000" stroke="none">
<path d="M5186 15256 c-373 -157 -802 -862 -1119 -1841 -46 -141 -132 -462
-153 -569 -35 -183 -38 -212 -38 -356 0 -133 8 -308 18 -415 2 -16 6 -66 10
-110 9 -94 11 -120 31 -280 46 -371 115 -660 192 -808 21 -39 32 -72 27 -76
-5 -5 -72 -61 -148 -125 -105 -88 -142 -114 -152 -106 -20 17 -94 144 -114
197 -10 26 -24 62 -31 78 -7 17 -13 35 -15 40 -1 6 -14 47 -28 92 -13 45 -27
95 -30 110 -3 15 -17 80 -30 143 -26 121 -32 157 -51 295 -3 28 -8 57 -10 65
-2 8 -7 48 -10 89 -4 41 -9 84 -11 95 -2 12 -7 57 -10 101 -8 99 -9 103 -15
110 -7 6 -134 -99 -190 -158 -125 -130 -205 -287 -224 -442 -4 -27 -8 -61 -10
-75 -3 -14 -7 -43 -11 -65 -3 -22 -12 -65 -21 -95 -8 -30 -16 -65 -19 -77 -13
-67 -85 -247 -149 -378 -181 -368 -431 -681 -879 -1099 l-117 -110 38 -19 c49
-26 79 -59 110 -126 53 -112 12 -260 -123 -447 -53 -74 -91 -122 -134 -174 -8
-10 -22 -27 -30 -37 -8 -10 -56 -68 -106 -128 -99 -120 -144 -179 -144 -187 0
-3 15 -9 33 -12 93 -17 174 -109 184 -209 8 -78 -16 -140 -98 -253 -284 -392
-455 -691 -548 -959 -21 -60 -52 -207 -46 -214 2 -2 18 2 36 8 108 38 235 -27
272 -138 14 -43 15 -91 2 -181 -4 -25 -9 -61 -11 -80 -3 -19 -9 -60 -14 -90
-5 -30 -12 -77 -15 -105 -3 -27 -8 -61 -10 -75 -12 -65 -49 -334 -60 -430 -3
-30 -8 -66 -10 -80 -4 -24 -7 -57 -20 -180 -3 -30 -8 -71 -10 -90 -25 -208
-39 -459 -38 -670 1 -183 4 -260 10 -260 2 0 26 16 54 35 109 75 226 81 357
20 160 -75 227 -189 277 -470 15 -86 20 -239 19 -617 l0 -417 35 16 c93 39
150 54 211 55 135 1 225 -76 245 -209 3 -22 8 -94 10 -160 10 -252 14 -319 30
-503 3 -30 7 -88 11 -128 3 -40 7 -80 9 -90 1 -9 6 -55 10 -102 4 -47 8 -87
10 -90 2 -3 6 -35 9 -72 4 -37 8 -75 10 -85 2 -10 7 -40 10 -68 4 -27 9 -61
11 -75 3 -14 7 -41 9 -60 8 -63 17 -114 31 -190 8 -41 17 -88 20 -105 2 -16 9
-55 15 -85 6 -30 13 -66 16 -80 12 -62 78 -344 101 -425 13 -49 26 -97 28
-106 17 -75 68 -223 86 -251 13 -20 39 -46 58 -59 l35 -24 5631 -3 5632 -2 44
23 c95 51 119 126 92 293 -7 49 -16 100 -17 114 -10 69 -26 168 -31 190 -3 14
-8 41 -11 60 -33 204 -135 637 -208 886 -302 1026 -772 1701 -1477 2119 -292
173 -597 304 -1179 505 -52 19 -185 67 -295 107 -110 41 -204 75 -210 77 -5 2
-23 8 -38 14 -16 7 -30 12 -32 12 -2 0 -68 27 -147 61 -148 63 -428 200 -498
244 -22 14 -42 25 -45 25 -9 0 -204 129 -300 198 -292 210 -587 517 -806 837
-65 95 -153 236 -199 320 -18 33 -37 64 -41 70 -6 5 -87 10 -187 11 -181 2
-467 10 -602 19 -41 2 -124 7 -185 10 -60 3 -137 7 -170 10 -33 2 -96 7 -140
10 -44 3 -100 8 -125 10 -44 4 -160 14 -230 20 -54 4 -161 15 -200 20 -161 20
-320 24 -410 10 -132 -20 -320 -81 -550 -178 -14 -5 -30 -11 -36 -12 -6 -2
-27 -10 -45 -18 -154 -70 -401 -107 -530 -78 -24 5 -55 12 -69 15 -141 27
-384 174 -548 333 -22 21 -38 15 -114 -45 -114 -90 -140 -108 -188 -132 -127
-65 -262 -59 -370 18 -78 55 -172 181 -215 290 l-17 42 -47 -5 c-58 -7 -105
-13 -156 -21 -111 -17 -277 -19 -355 -4 -194 37 -313 188 -303 385 6 115 43
228 133 406 l38 75 -60 60 c-217 213 -141 444 244 737 l107 81 -61 60 c-84 83
-112 147 -106 241 11 161 121 278 385 408 270 133 667 273 1268 447 146 43
287 44 450 4 145 -36 324 -125 429 -215 278 -235 357 -294 471 -351 112 -56
194 -81 348 -104 44 -7 295 -7 332 0 17 3 57 8 90 11 33 3 67 7 75 10 8 2 31
6 50 9 49 7 174 34 245 52 33 9 67 17 75 19 70 16 313 94 537 173 157 56 188
63 283 63 79 0 144 -14 230 -53 57 -26 157 -83 170 -98 3 -3 19 -16 35 -29 42
-32 138 -117 215 -191 78 -74 201 -183 253 -225 21 -16 50 -39 65 -51 144
-113 430 -245 607 -280 22 -4 42 -8 45 -9 3 -1 25 -5 50 -9 25 -5 53 -10 62
-11 126 -24 531 -24 653 0 11 2 27 4 36 4 15 1 23 19 34 72 6 29 48 123 74
164 13 22 49 67 80 99 33 35 51 61 44 63 -7 3 -28 15 -48 29 -20 13 -38 24
-41 24 -3 0 -17 9 -32 19 -15 10 -70 47 -122 81 -503 329 -699 621 -794 1180
-14 80 -28 170 -31 200 -3 30 -8 71 -10 90 -12 98 -32 335 -40 480 -8 132 -18
236 -36 352 -6 40 -12 80 -13 88 -2 8 -6 29 -9 45 -4 17 -9 39 -11 50 -27 139
-98 360 -161 506 -45 103 -142 281 -157 287 -4 2 -8 8 -8 13 0 34 -231 301
-350 404 -105 92 -375 263 -440 280 -3 0 -20 9 -37 18 -18 10 -70 31 -115 48
-75 28 -103 37 -203 69 -72 22 -231 60 -275 66 -8 0 -40 6 -70 12 -50 10 -102
18 -185 27 -123 14 -156 18 -200 20 -88 6 -246 15 -360 20 -196 10 -242 25
-314 97 -57 57 -152 225 -259 458 -191 419 -435 895 -570 1113 -345 560 -617
779 -846 683z"/>
<path d="M10113 15074 c-167 -43 -387 -153 -607 -302 -60 -40 -114 -78 -120
-83 -6 -5 -67 -52 -136 -105 -121 -94 -283 -231 -405 -343 -161 -149 -638
-635 -762 -777 -57 -66 -132 -152 -160 -183 l-32 -36 42 -8 c23 -4 65 -11 92
-17 28 -5 64 -12 80 -15 51 -8 256 -63 350 -93 234 -76 507 -208 665 -321 111
-79 153 -112 225 -176 154 -136 276 -275 387 -442 54 -80 63 -90 73 -75 28 41
247 562 340 807 31 83 60 159 65 170 14 32 106 293 130 370 12 39 35 113 52
165 16 52 31 102 33 110 2 8 20 74 40 145 19 72 38 141 40 155 5 27 12 57 21
93 13 53 54 308 61 377 13 127 7 328 -12 400 -28 109 -81 180 -147 197 -13 3
-68 7 -123 8 -79 3 -119 -2 -192 -21z"/>
<path d="M4860 8959 c-107 -33 -202 -62 -211 -64 -42 -9 -426 -139 -519 -175
-58 -23 -109 -42 -115 -44 -5 -1 -27 -10 -49 -19 -21 -9 -40 -17 -43 -17 -12
0 -233 -113 -233 -119 0 -4 19 -18 43 -31 114 -64 186 -171 182 -270 -5 -106
-46 -159 -211 -270 -157 -105 -264 -189 -330 -259 l-23 -25 53 -51 c128 -121
151 -273 66 -435 -109 -209 -148 -305 -127 -313 19 -7 131 3 352 31 61 8 201
8 235 0 89 -21 188 -100 204 -164 15 -57 91 -204 106 -204 8 0 26 10 40 23 47
44 175 133 220 154 89 41 181 54 265 38 72 -15 156 -66 240 -148 56 -55 190
-149 251 -178 76 -34 146 -48 221 -42 62 5 201 43 267 72 91 41 326 130 406
154 286 85 438 97 733 62 15 -2 62 -7 105 -10 42 -4 88 -8 101 -10 14 -3 62
-7 109 -10 46 -4 93 -8 103 -10 10 -2 67 -7 126 -10 59 -4 124 -8 143 -10 19
-2 91 -7 160 -10 69 -4 141 -9 160 -11 240 -23 1261 -23 1470 0 19 3 77 7 127
11 51 3 103 8 115 10 13 2 53 6 90 10 37 3 77 8 90 10 13 2 46 6 73 10 55 6
126 18 280 46 102 18 335 79 443 115 237 80 428 185 550 303 63 61 116 136
107 151 -3 4 -20 12 -38 16 -131 28 -317 192 -400 352 -27 51 -52 90 -55 88
-7 -4 -49 -8 -212 -22 -90 -7 -330 -7 -420 1 -351 30 -634 115 -913 274 -93
53 -279 186 -349 250 -18 16 -43 38 -54 48 -12 10 -70 64 -130 120 -169 158
-195 180 -260 223 -73 48 -133 62 -195 44 -24 -7 -150 -49 -279 -93 -214 -73
-532 -163 -627 -177 -21 -3 -46 -7 -55 -10 -31 -9 -62 -14 -248 -38 -103 -13
-433 -15 -510 -2 -325 54 -557 174 -875 454 -187 165 -310 224 -495 236 -58 4
-87 -3 -260 -55z"/>
<path d="M11247 8209 c-63 -21 -122 -82 -138 -143 -31 -113 20 -275 112 -363
79 -74 217 -98 313 -52 144 67 224 262 162 395 -66 142 -280 220 -449 163z"/>
</g>
</svg>
