<?xml version="1.0" standalone="no"?>
<!DOCTYPE svg PUBLIC "-//W3C//DTD SVG 20010904//EN"
 "http://www.w3.org/TR/2001/REC-SVG-20010904/DTD/svg10.dtd">
<svg version="1.0" xmlns="http://www.w3.org/2000/svg"
 width="1531.000000pt" height="1531.000000pt" viewBox="0 0 1531.000000 1531.000000"
 preserveAspectRatio="xMidYMid meet">
<metadata>
Created by potrace 1.14, written by Peter Selinger 2001-2017
</metadata>
<g transform="translate(0.000000,1531.000000) scale(0.100000,-0.100000)"
fill="#000000" stroke="none">
<path d="M5180 15293 c-24 -9 -51 -22 -58 -30 -7 -7 -19 -13 -26 -13 -16 0
-127 -89 -192 -154 -280 -279 -591 -866 -822 -1551 -82 -245 -173 -574 -197
-720 -10 -60 -13 -76 -22 -120 -16 -87 -8 -640 12 -785 3 -19 7 -58 10 -85 2
-28 8 -80 14 -115 5 -36 12 -81 15 -100 53 -349 151 -689 222 -770 12 -14 -3
-30 -118 -125 -73 -61 -142 -118 -155 -128 l-23 -18 -43 68 c-67 104 -152 323
-183 469 -1 7 -9 43 -17 80 -18 80 -53 279 -62 350 -3 27 -8 58 -10 69 -2 11
-7 49 -10 85 -4 36 -8 76 -11 90 -4 25 -17 169 -18 203 -1 27 -14 21 -85 -37
-214 -177 -308 -339 -345 -598 -9 -60 -21 -129 -27 -155 -6 -27 -13 -58 -15
-70 -10 -52 -99 -291 -141 -381 -117 -245 -253 -445 -498 -732 -39 -46 -372
-378 -453 -452 -34 -32 -62 -60 -62 -63 0 -3 7 -5 15 -5 9 0 40 -24 69 -52 96
-94 110 -211 44 -356 -37 -82 -183 -293 -253 -368 -5 -6 -26 -31 -46 -55 -175
-211 -218 -265 -219 -274 0 -6 20 -17 44 -24 128 -37 202 -181 159 -308 -14
-42 -84 -159 -103 -173 -12 -9 -216 -312 -272 -405 -161 -266 -256 -477 -294
-655 -21 -101 -21 -100 29 -86 123 37 251 -40 273 -164 4 -25 7 -47 7 -50 0
-3 -3 -32 -7 -65 -3 -33 -10 -85 -16 -115 -5 -30 -12 -75 -15 -100 -3 -25 -8
-56 -10 -70 -2 -14 -6 -41 -9 -60 -3 -19 -12 -84 -21 -145 -15 -105 -18 -133
-30 -227 -3 -24 -8 -54 -10 -68 -2 -14 -7 -52 -10 -85 -4 -33 -8 -72 -11 -86
-2 -14 -6 -52 -9 -85 -3 -32 -8 -70 -10 -84 -2 -14 -6 -59 -10 -100 -3 -41 -8
-91 -10 -110 -18 -146 -29 -750 -13 -765 3 -3 27 10 53 29 74 57 204 83 280
55 97 -35 179 -83 217 -128 58 -68 108 -197 132 -333 26 -146 30 -261 29 -675
l-2 -403 37 16 c78 34 159 56 214 56 75 1 159 -38 194 -91 42 -65 49 -102 59
-321 11 -253 25 -455 46 -660 5 -52 11 -118 14 -145 2 -28 6 -64 9 -80 2 -17
7 -55 11 -85 4 -30 8 -66 10 -80 2 -14 7 -45 10 -70 3 -25 10 -70 15 -100 5
-30 12 -75 16 -100 10 -71 12 -80 29 -170 9 -47 18 -94 20 -105 43 -239 172
-743 238 -930 l14 -40 5764 -1 c3170 -1 5767 0 5770 2 4 2 3 23 -2 47 -4 24
-11 68 -14 98 -9 73 -30 215 -41 279 -2 14 -9 54 -14 90 -19 114 -21 125 -25
140 -2 8 -7 38 -11 65 -3 28 -8 53 -10 56 -2 4 -6 24 -9 45 -4 22 -8 47 -11
56 -3 10 -8 30 -11 45 -3 16 -6 33 -7 38 -2 6 -6 28 -10 50 -4 22 -12 54 -16
70 -5 17 -11 41 -14 55 -9 55 -67 276 -110 422 -309 1046 -778 1720 -1491
2139 -291 171 -568 290 -1135 488 -155 54 -404 143 -470 168 -127 49 -195 76
-225 89 -16 7 -59 25 -95 39 -122 50 -395 188 -525 265 -358 214 -660 472
-905 775 -36 44 -67 82 -70 85 -35 32 -247 356 -320 488 l-45 82 -130 0 c-167
1 -418 7 -565 15 -334 17 -436 23 -515 30 -27 3 -87 7 -132 10 -44 2 -98 7
-120 9 -21 3 -78 8 -128 11 -49 4 -97 9 -105 10 -8 2 -52 6 -98 10 -46 4 -91
8 -100 10 -28 5 -195 19 -217 19 -11 0 -47 -3 -80 -7 -159 -16 -275 -51 -590
-177 -227 -90 -344 -121 -484 -125 -246 -6 -463 89 -723 318 -44 38 -71 56
-80 51 -22 -13 -131 -97 -158 -121 -13 -13 -62 -42 -109 -65 -81 -41 -87 -43
-175 -43 -72 1 -100 5 -134 23 -106 52 -181 134 -254 279 l-43 85 -65 -6 c-36
-3 -76 -8 -90 -10 -129 -22 -289 -27 -381 -14 -126 19 -236 94 -288 196 -69
135 -39 333 87 577 l49 96 -67 69 c-166 168 -147 360 57 565 69 69 96 92 215
182 l86 66 -66 66 c-50 50 -72 80 -86 121 -59 166 23 318 244 454 113 70 396
196 550 246 14 5 76 27 139 49 119 43 382 125 656 206 138 41 172 48 245 47
304 -2 500 -84 795 -332 221 -187 302 -242 435 -296 127 -51 279 -78 440 -78
74 0 233 11 270 19 14 3 43 7 65 10 86 11 204 36 367 79 125 34 389 116 433
135 24 11 212 77 240 85 143 39 301 14 453 -70 53 -30 196 -137 238 -178 44
-44 261 -245 314 -291 90 -78 254 -187 369 -244 82 -41 243 -103 304 -117 49
-11 143 -30 192 -39 148 -25 562 -26 690 0 11 2 25 4 30 4 6 1 11 10 12 22 7
83 80 226 158 305 l61 62 -111 68 c-136 84 -334 223 -412 289 -81 69 -188 180
-237 245 -22 30 -43 57 -46 60 -9 9 -41 65 -84 150 -64 126 -128 336 -160 525
-3 17 -8 46 -11 65 -3 19 -11 68 -16 110 -6 41 -12 86 -14 100 -1 14 -6 61 -9
105 -4 44 -9 100 -11 125 -4 50 -12 155 -20 270 -14 200 -14 207 -31 325 -54
383 -190 766 -367 1030 -109 163 -275 342 -412 445 -33 25 -62 47 -65 50 -33
33 -252 156 -370 207 -269 118 -622 202 -957 228 -140 11 -206 15 -323 20
-330 13 -386 33 -478 170 -39 57 -152 276 -241 468 -23 48 -59 126 -82 175
-55 118 -248 503 -289 577 -18 33 -60 107 -92 164 -33 58 -65 114 -72 125 -6
11 -15 25 -19 30 -4 6 -36 54 -70 106 -182 279 -354 459 -510 535 -73 35 -170
43 -237 18z"/>
<path d="M10113 15105 c-343 -88 -803 -395 -1328 -885 -105 -99 -398 -392
-505 -506 -196 -209 -394 -433 -388 -440 3 -2 14 -6 24 -8 11 -2 60 -11 109
-21 533 -98 1013 -323 1344 -630 78 -73 95 -90 167 -170 81 -92 140 -169 209
-272 l48 -73 47 108 c71 161 202 472 253 602 88 225 100 257 167 445 57 161
123 365 143 440 3 11 15 52 27 90 11 39 23 78 25 89 3 10 11 42 19 70 8 28 19
76 26 106 6 30 20 94 30 141 10 47 21 104 24 125 4 22 8 49 10 59 3 18 12 86
22 180 8 75 5 257 -6 315 -23 128 -63 200 -131 236 -55 29 -221 29 -336 -1z"/>
<path d="M5026 9033 c-3 -4 -30 -12 -126 -38 -360 -98 -936 -302 -1125 -397
-115 -59 -113 -55 -47 -98 109 -70 161 -141 170 -230 10 -111 -38 -184 -194
-290 -177 -121 -364 -270 -364 -291 0 -4 25 -33 55 -64 133 -135 145 -276 40
-465 -63 -114 -115 -234 -115 -267 0 -14 11 -15 88 -9 48 3 155 14 237 24 137
16 235 15 300 -1 69 -18 154 -96 175 -163 17 -51 77 -175 94 -192 11 -11 27
-3 90 47 154 123 239 163 354 167 115 4 199 -32 318 -138 106 -95 122 -107
186 -149 88 -56 161 -81 249 -85 103 -4 169 13 404 106 226 89 352 131 475
159 81 18 107 23 210 37 51 7 194 7 226 0 12 -2 57 -7 100 -11 43 -4 90 -8
104 -10 14 -2 54 -6 90 -10 36 -3 85 -7 110 -10 58 -6 145 -13 240 -20 41 -3
95 -7 120 -10 25 -2 95 -7 155 -10 61 -3 130 -8 155 -10 304 -27 1405 -27
1615 0 17 2 70 7 120 11 49 3 99 8 110 9 11 2 47 6 80 10 96 10 261 34 375 56
30 6 69 13 85 16 34 6 245 59 290 73 314 99 516 204 653 339 47 47 118 139
110 145 -1 1 -31 13 -66 26 -164 60 -302 190 -392 369 l-32 64 -56 -7 c-241
-29 -629 -24 -788 9 -12 3 -39 7 -60 11 -268 40 -607 188 -851 370 -124 93
-183 144 -353 305 -211 199 -304 262 -386 261 -25 -1 -98 -21 -171 -48 -410
-149 -801 -250 -1088 -279 -33 -3 -75 -8 -92 -10 -43 -6 -265 -7 -323 -1 -226
21 -374 62 -544 151 -121 62 -210 125 -371 260 -283 237 -362 277 -572 289
-35 1 -65 1 -67 -1z"/>
<path d="M11370 8250 c-253 -33 -356 -342 -175 -522 81 -81 210 -109 316 -69
240 91 275 410 60 545 -52 33 -142 54 -201 46z"/>
</g>
</svg>
