<?xml version="1.0" standalone="no"?>
<!DOCTYPE svg PUBLIC "-//W3C//DTD SVG 20010904//EN"
 "http://www.w3.org/TR/2001/REC-SVG-20010904/DTD/svg10.dtd">
<svg version="1.0" xmlns="http://www.w3.org/2000/svg"
 width="1920.000000pt" height="1920.000000pt" viewBox="0 0 1920.000000 1920.000000"
 preserveAspectRatio="xMidYMid meet">
<metadata>
Created by potrace 1.14, written by Peter Selinger 2001-2017
</metadata>
<g transform="translate(0.000000,1920.000000) scale(0.100000,-0.100000)"
fill="#000000" stroke="none">
<path d="M7108 15255 c-111 -45 -243 -152 -346 -280 -31 -38 -63 -76 -69 -83
-16 -17 -153 -224 -187 -282 -246 -426 -474 -993 -616 -1533 -33 -128 -77
-335 -86 -407 -3 -25 -7 -61 -10 -80 -15 -131 1 -561 32 -795 12 -97 15 -122
19 -146 3 -14 7 -43 10 -65 2 -21 11 -75 19 -119 9 -44 18 -93 20 -110 5 -26
71 -284 80 -310 27 -82 61 -159 86 -199 l28 -44 -31 -25 c-18 -14 -86 -70
-152 -125 -66 -55 -123 -98 -128 -95 -28 17 -114 186 -157 308 -33 93 -95 333
-105 408 -3 23 -8 49 -10 57 -7 26 -40 246 -50 335 -3 28 -8 66 -10 85 -2 19
-7 69 -10 110 -7 81 -12 121 -17 125 -7 7 -198 -167 -241 -221 -91 -111 -156
-255 -172 -375 -14 -110 -20 -145 -45 -254 -13 -61 -47 -173 -59 -200 -5 -11
-19 -47 -31 -79 -73 -205 -276 -538 -455 -747 -16 -19 -52 -62 -80 -95 -54
-64 -369 -382 -474 -478 -48 -44 -60 -60 -50 -67 8 -5 17 -9 21 -9 21 0 94
-81 114 -127 19 -42 23 -66 20 -120 -8 -148 -88 -275 -435 -693 -66 -80 -121
-150 -121 -155 0 -6 20 -17 44 -24 92 -27 166 -120 172 -216 4 -72 -28 -143
-128 -282 -237 -330 -412 -629 -495 -848 -31 -83 -73 -239 -73 -273 0 -19 3
-19 43 -7 107 31 213 -19 260 -124 16 -37 18 -58 14 -130 -4 -47 -11 -113 -16
-146 -6 -33 -13 -78 -16 -100 -4 -22 -8 -51 -10 -65 -15 -93 -25 -162 -30
-210 -4 -30 -8 -57 -10 -60 -2 -3 -6 -35 -9 -70 -4 -36 -11 -92 -16 -125 -5
-33 -12 -86 -15 -118 -4 -32 -8 -66 -10 -76 -2 -10 -6 -54 -10 -97 -4 -43 -9
-81 -10 -84 -2 -3 -6 -47 -10 -99 -4 -52 -8 -101 -10 -110 -18 -95 -29 -750
-13 -766 4 -4 24 7 46 24 78 63 194 86 289 58 206 -61 304 -195 349 -477 26
-160 28 -210 27 -642 l-2 -417 27 10 c15 6 40 17 57 24 46 22 146 42 185 38
84 -9 161 -56 192 -118 28 -56 35 -102 43 -295 6 -166 17 -343 30 -490 2 -25
6 -74 9 -110 3 -36 8 -81 10 -100 3 -19 8 -64 11 -100 3 -36 7 -76 9 -90 3
-14 7 -50 11 -81 3 -31 7 -65 9 -75 2 -11 7 -41 10 -69 4 -27 9 -61 11 -75 3
-14 7 -42 10 -64 2 -21 6 -46 9 -55 3 -9 7 -38 11 -65 7 -54 70 -380 85 -436
5 -19 11 -46 13 -60 3 -14 12 -54 21 -90 9 -36 18 -74 21 -85 13 -59 49 -188
92 -330 l48 -160 5773 -3 c3174 -1 5772 0 5772 3 0 2 -7 55 -15 117 -24 175
-25 181 -30 208 -2 14 -7 43 -10 65 -3 22 -7 47 -10 55 -2 8 -6 36 -9 61 -4
25 -15 95 -27 155 -11 60 -22 120 -25 134 -4 21 -25 124 -29 140 -11 48 -16
68 -20 85 -32 148 -67 291 -100 405 -9 30 -18 62 -20 71 -19 85 -148 462 -186
546 -10 23 -19 45 -19 48 0 3 -11 31 -25 61 -14 30 -25 57 -25 60 0 14 -169
339 -222 427 -57 95 -147 231 -181 273 -8 11 -45 57 -82 104 -37 47 -131 148
-209 225 -326 324 -688 540 -1286 770 -96 37 -182 68 -190 70 -27 6 -245 85
-262 95 -10 6 -23 10 -29 10 -29 0 -575 206 -706 265 -29 14 -56 25 -58 25
-12 0 -287 135 -378 186 -112 63 -269 161 -333 209 -23 16 -54 39 -70 50 -173
124 -411 349 -561 530 -42 50 -84 100 -94 113 -79 94 -283 407 -351 540 l-22
42 -140 0 c-202 1 -547 12 -771 25 -157 9 -251 16 -300 20 -27 2 -86 7 -130
10 -44 3 -102 8 -130 10 -27 3 -81 7 -120 10 -38 3 -86 8 -105 11 -19 2 -64 6
-100 9 -36 3 -80 7 -98 9 -201 27 -279 24 -450 -13 -105 -23 -252 -72 -377
-126 -77 -33 -189 -77 -206 -80 -10 -2 -26 -8 -36 -13 -15 -8 -83 -26 -183
-48 -41 -9 -233 -11 -260 -3 -14 5 -38 10 -55 13 -119 18 -330 129 -460 241
-16 15 -51 44 -77 66 -25 22 -48 43 -51 45 -7 7 -52 -22 -147 -97 -47 -37
-114 -81 -150 -100 -59 -29 -73 -32 -160 -33 -79 -1 -102 3 -140 22 -104 51
-179 135 -253 280 l-42 84 -60 -6 c-33 -3 -76 -8 -95 -11 -141 -20 -297 -25
-389 -12 -70 10 -167 56 -212 102 -147 146 -137 373 30 691 l39 75 -63 63
c-70 69 -99 119 -112 192 -12 67 0 135 36 208 53 108 153 210 345 354 l88 66
-50 43 c-125 108 -157 244 -90 381 61 124 238 244 548 372 69 28 134 55 145
60 20 8 179 64 325 114 113 38 375 119 555 171 120 35 178 47 230 48 107 1
203 -11 302 -38 184 -49 307 -124 568 -345 226 -192 345 -255 580 -306 96 -21
372 -23 480 -3 22 4 60 10 85 13 47 6 64 9 145 26 82 17 85 18 220 53 158 42
337 99 510 162 204 75 301 90 420 66 174 -35 289 -112 591 -397 214 -202 347
-300 530 -392 84 -42 249 -106 303 -117 119 -26 162 -34 191 -39 166 -28 523
-27 726 2 6 1 11 8 11 15 4 89 92 258 173 331 44 39 48 51 24 60 -8 3 -77 45
-152 93 -115 73 -170 111 -277 190 -51 38 -153 130 -213 192 -115 119 -205
261 -283 446 -22 54 -72 233 -85 305 -2 14 -9 48 -14 75 -18 96 -25 137 -35
225 -3 25 -7 61 -10 80 -2 19 -7 67 -10 105 -4 39 -8 88 -10 110 -2 22 -7 81
-10 130 -20 320 -27 390 -56 560 -101 585 -337 1026 -726 1357 -51 43 -211
152 -288 195 -199 111 -559 236 -773 268 -15 2 -54 9 -87 14 -103 17 -196 28
-295 36 -41 3 -95 8 -120 10 -25 2 -103 7 -175 10 -271 13 -298 16 -360 45
-100 47 -157 137 -361 565 -37 77 -87 183 -112 235 -25 52 -46 97 -46 100 -2
8 -196 390 -227 448 -16 28 -43 78 -61 110 -17 31 -53 92 -80 135 -26 43 -48
80 -48 82 0 7 -128 194 -178 260 -78 102 -170 205 -230 255 -29 25 -62 53 -75
64 -12 10 -51 32 -87 49 -87 42 -171 45 -252 12z"/>
<path d="M12090 15085 c-338 -76 -787 -366 -1315 -849 -185 -169 -529 -519
-714 -724 -13 -15 -40 -45 -60 -67 -123 -136 -173 -196 -168 -202 4 -3 39 -12
79 -19 72 -12 108 -19 158 -29 14 -3 84 -21 155 -40 72 -20 137 -37 145 -39
94 -24 415 -165 545 -241 299 -175 568 -429 760 -718 47 -70 60 -85 66 -70 3
10 45 107 93 216 322 736 574 1482 650 1922 15 85 35 227 41 283 7 72 8 267 1
298 -2 12 -7 37 -10 57 -16 99 -65 180 -128 213 -44 23 -213 28 -298 9z"/>
<path d="M6960 8998 c-47 -12 -339 -97 -370 -108 -14 -5 -110 -36 -215 -70
-295 -96 -521 -183 -667 -256 -107 -53 -106 -51 -40 -94 123 -80 172 -157 168
-260 -4 -110 -42 -162 -191 -260 -108 -71 -247 -177 -318 -242 l-59 -53 41
-33 c54 -43 109 -126 125 -188 28 -107 8 -188 -91 -364 -29 -51 -83 -186 -83
-206 0 -15 9 -16 93 -10 50 3 103 8 116 11 13 2 47 7 75 10 28 3 65 7 81 10
61 10 203 6 246 -6 100 -29 157 -83 196 -184 28 -74 67 -151 88 -173 10 -11
26 -2 89 48 190 150 313 193 456 156 90 -23 133 -51 256 -166 63 -59 194 -145
260 -171 110 -43 287 -28 429 36 90 41 372 147 450 169 227 65 427 90 575 72
30 -3 71 -8 90 -11 19 -2 64 -7 100 -10 36 -3 81 -8 100 -10 19 -2 69 -7 110
-10 41 -3 93 -8 115 -10 22 -2 76 -7 120 -10 44 -3 103 -8 130 -10 28 -2 97
-7 155 -10 58 -3 128 -8 155 -10 149 -13 412 -19 850 -19 447 0 585 3 775 19
154 13 345 33 380 40 9 2 41 6 70 10 29 4 62 9 74 11 11 2 38 6 61 10 22 3 83
15 135 26 52 10 106 22 120 24 14 3 33 7 42 10 9 3 27 7 39 9 42 8 187 54 319
100 74 27 244 113 322 164 83 54 170 137 217 204 17 25 31 48 31 50 0 3 -12 8
-27 12 -51 12 -157 68 -213 111 -93 70 -159 153 -220 273 l-32 63 -62 -7
c-164 -18 -451 -24 -596 -12 -338 29 -651 125 -917 283 -71 42 -227 150 -255
177 -7 7 -38 32 -68 57 -30 25 -64 54 -76 65 -42 40 -240 224 -274 255 -48 43
-143 108 -177 121 -52 20 -108 11 -239 -36 -118 -43 -318 -111 -354 -120 -8
-3 -49 -14 -90 -25 -156 -44 -258 -69 -360 -89 -135 -26 -194 -36 -275 -45
-321 -37 -570 -16 -803 66 -90 31 -220 96 -307 153 -29 19 -155 114 -165 125
-19 20 -197 166 -250 205 -79 58 -186 109 -260 124 -80 16 -160 19 -200 9z"/>
<path d="M13308 8219 c-103 -11 -201 -87 -245 -189 -18 -43 -23 -152 -9 -200
37 -125 150 -212 281 -216 152 -5 271 84 309 229 54 208 -119 401 -336 376z"/>
</g>
</svg>
